<?xml version="1.0" encoding="UTF-8" standalone="no"?>
<!-- Created with Inkscape (http://www.inkscape.org/) -->

<svg
   xmlns:dc="http://purl.org/dc/elements/1.1/"
   xmlns:cc="http://creativecommons.org/ns#"
   xmlns:rdf="http://www.w3.org/1999/02/22-rdf-syntax-ns#"
   xmlns:svg="http://www.w3.org/2000/svg"
   xmlns="http://www.w3.org/2000/svg"
   xmlns:sodipodi="http://sodipodi.sourceforge.net/DTD/sodipodi-0.dtd"
   xmlns:inkscape="http://www.inkscape.org/namespaces/inkscape"
   width="128.4399"
   viewBox="0 0 128.4399 119.60777"
   version="1.1"
   id="svg4404"
   inkscape:version="0.92.5 (2060ec1f9f, 2020-04-08)"
   sodipodi:docname="sheep.svg"
   height="119.60777">
  <defs
     id="defs4398" />
  <sodipodi:namedview
     id="base"
     pagecolor="#ffffff"
     bordercolor="#666666"
     borderopacity="1.0"
     inkscape:pageopacity="0.0"
     inkscape:pageshadow="2"
     inkscape:zoom="1.4"
     inkscape:cx="316.66969"
     inkscape:cy="178.32109"
     inkscape:document-units="mm"
     inkscape:current-layer="layer1"
     showgrid="false"
     inkscape:window-width="1920"
     inkscape:window-height="1043"
     inkscape:window-x="1920"
     inkscape:window-y="0"
     inkscape:window-maximized="1"
     inkscape:snap-nodes="true"
     fit-margin-top="0"
     fit-margin-left="0"
     fit-margin-right="0"
     fit-margin-bottom="0" />
  <metadata
     id="metadata4401">
    <rdf:RDF>
      <cc:Work
         rdf:about="">
        <dc:format>image/svg+xml</dc:format>
        <dc:type
           rdf:resource="http://purl.org/dc/dcmitype/StillImage" />
        <dc:title />
      </cc:Work>
    </rdf:RDF>
  </metadata>
  <g
     inkscape:label="Layer 1"
     inkscape:groupmode="layer"
     id="layer1"
     transform="translate(-63.013355,-120.74219)">
    <path
       sodipodi:nodetypes="cccssssscssccccssssscccc"
       inkscape:connector-curvature="0"
       id="path4381"
       d="M 118.28312,235.66203 C 73.07959,173.74236 82.671173,141.75279 94.955878,135.72377 c 1.389787,-0.85893 3.59836,-0.0588 4.90794,1.77802 1.843322,2.58548 2.072962,2.38195 1.016812,-0.90122 -0.75034,-2.33252 -0.51357,-4.24094 0.52613,-4.24094 1.03971,0 4.31097,-2.25512 7.26946,-5.01138 2.95849,-2.75625 8.91922,-5.58586 13.24606,-6.288 6.37749,-1.03493 9.78078,0.25802 17.97504,6.82891 5.55944,4.45806 10.241,10.28661 10.40348,12.95235 0.22768,3.7354 0.67312,4.01324 1.94262,1.21169 1.66444,-3.67308 7.2123,-5.03212 21.70849,-5.31784 7.77458,-0.15324 17.50134,5.96774 17.50134,11.01347 -40.43536,12.30223 -21.18996,59.67472 -41.71223,77.17786 -10.48557,8.54946 -15.21531,14.60863 -31.4579,10.73534 z m 20.85231,-57.86377 c -2.82415,-21.71712 -4.06474,-26.50641 -6.0387,-23.31248 -2.6994,4.36772 -9.9958,4.19917 -13.66239,-0.31561 -3.06104,-3.76915 -3.01264,-3.99738 -4.17602,19.69258 -0.29277,5.96163 0.24521,6.2891 8.51068,5.18047 6.1495,-0.82483 9.84716,-0.0274 12.20224,2.63164 1.85847,2.09829 3.56114,3.85656 3.78372,3.90726 0.22259,0.0507 -0.0562,-3.45204 -0.61953,-7.78386 z m -0.99685,-27.4062 c -50.083483,60.29349 -25.04174,30.14674 0,0 z"
       style="fill:#a9a3a2;stroke-width:2.4233942" />
    <path
       sodipodi:nodetypes="csccssssssssscssssccsccccccsccccsscccssss"
       inkscape:connector-curvature="0"
       id="path4379"
       d="m 84.370143,158.48242 c -4.595786,0.76111 -21.356788,-14.81606 -21.356788,-19.84836 0,-1.79167 1.535277,-4.53174 3.411721,-6.08905 13.311357,-7.16293 18.844245,2.07609 25.425179,3.89546 2.799841,0.73218 5.09062,2.22108 5.09062,3.30868 0,1.08759 2.109456,2.64695 4.687685,3.46525 5.19627,1.64923 5.92265,10.95577 0.85509,10.95577 -4.553502,0 -3.828778,4.31403 2.1307,12.68335 3.57877,5.02591 5.45129,11.68376 5.88213,20.91416 0.62819,13.45851 4.37361,19.06612 7.42443,11.11579 0.87749,-2.2867 0.24327,-6.3228 -1.40939,-8.96911 -4.09984,-6.5649 -0.90326,-8.5687 11.54568,-7.23747 10.30122,1.10156 10.4889,1.28097 9.12778,8.72538 -1.3735,7.51215 0.8743,19.37509 3.84712,16.40227 0.84451,-0.84451 2.61792,-10.75538 2.96093,-18.1042 0.34476,-7.38613 2.42642,-16.11287 4.65479,-19.51379 2.21712,-3.38375 4.03112,-7.82643 4.03112,-9.87263 0,-6.02229 -6.24652,-4.25956 -9.39532,2.6513 -1.59671,3.5044 -3.55527,5.71949 -4.35235,4.92241 -0.79708,-0.79707 0.33428,-4.17121 2.51413,-7.49808 2.17985,-3.32687 3.96336,-7.64952 3.96336,-9.6059 0,-1.95638 2.19689,-4.25431 4.88198,-5.10653 3.12936,-5.78664 10.43117,-3.95842 14.10196,-6.8941 6.9926,-6.32822 27.06055,0.32077 27.06055,8.96581 -3.61836,10.1727 -20.01886,9.91543 -26.6123,18.46545 -1.80314,71.99787 -48.40219,33.33724 -80.470807,-7.73186 z m 25.181277,2.84772 c -1.62692,-2.60511 -1.97494,-4.73657 -0.77339,-4.73657 2.17567,0 5.92258,7.282 4.48606,8.71852 -0.41504,0.41505 -2.08574,-1.37683 -3.71267,-3.98195 z m 23.91942,-20.27289 c -2.15021,-2.59085 -2.15646,-3.84043 -0.0258,-5.15726 1.54661,-0.95585 3.65869,-0.36796 4.69352,1.30642 1.13309,1.83338 3.19425,2.25382 5.1817,1.05698 2.75282,-1.65774 2.74855,-1.3073 -0.0258,2.11293 -4.05077,4.99382 -6.12494,5.13759 -9.82363,0.68093 z m -26.42571,-2.1443 c -2.03369,-2.45044 -1.16728,-3.05142 3.94421,-2.73588 9.09822,0.56164 9.45515,0.79248 5.33869,3.45274 -4.82232,3.11642 -6.18916,3.01086 -9.2829,-0.71686 z"
       style="fill:#88837e;stroke-width:2.4233942" />
    <path
       sodipodi:nodetypes="cssssccsscsccssssssssscsssssscccsssccsc"
       inkscape:connector-curvature="0"
       id="path4377"
       d="m 96.582666,191.55548 c -1.356478,-4.91276 -1.932897,-10.97211 -1.280933,-13.46522 0.651963,-2.49312 0.07873,-4.53293 -1.273846,-4.53293 -1.352576,0 -1.84112,-2.46275 -1.085654,-5.47277 1.802979,-7.18364 -1.436464,-12.10654 -7.311579,-11.11122 -6.417499,1.0872 -18.871917,-9.10043 -17.214055,-13.42075 -10.246973,-11.85706 10.678506,-17.64497 17.828216,-7.57868 2.175823,3.32072 4.904742,5.45135 6.064268,4.73472 3.248272,-2.00754 11.901977,3.49238 11.901977,7.56438 0,1.99424 -1.41317,4.16817 -3.14037,4.83096 -2.020754,0.77543 -2.79103,4.19736 -2.160528,9.59808 0.598263,5.12454 1.981578,7.77389 3.552198,6.8032 1.57614,-0.9741 2.00854,-0.12054 1.11653,2.20403 -1.78599,4.65421 4.55212,30.12591 9.35428,37.59311 1.92863,2.99895 4.70551,5.45264 6.17085,5.45264 1.75373,0 1.6098,-1.27056 -0.42116,-3.71771 -2.50294,-3.01585 -2.4767,-4.8551 0.13899,-9.74254 2.47718,-4.62867 2.56183,-6.68741 0.36529,-8.88395 -1.57251,-1.57251 -2.85911,-4.86042 -2.85911,-7.30648 0,-3.49488 0.91381,-3.95832 4.26673,-2.16389 2.34671,1.25592 7.25408,1.71243 10.90528,1.01445 4.93754,-0.94386 6.63854,-0.30187 6.63854,2.50555 0,2.07602 -1.13489,4.47598 -2.52197,5.33325 -2.90084,1.79281 -0.54936,11.22331 3.43419,13.77267 1.92238,1.23027 1.82984,2.56916 -0.32663,4.72562 -3.61481,3.61481 -3.90846,6.88642 -0.61811,6.88642 4.52651,0 11.83196,-23.12573 15.88523,-50.28543 1.2593,-8.43816 0.84166,-10.29942 -2.31103,-10.29942 -2.23251,0 -3.84811,-2.03489 -3.84811,-4.84679 0,-4.50849 2.87429,-5.85552 11.67344,-5.47077 1.75536,0.0767 4.3698,-2.44639 5.80986,-5.607 6.95392,-8.84587 17.53864,-3.81255 21.89667,3.43423 3.99338,6.76025 3.93521,7.02984 -2.93743,13.61425 -5.57214,5.33844 -8.74144,6.51546 -15.43859,5.73361 -8.22894,-0.96069 -8.40969,-0.79644 -7.68652,6.9846 0.40732,4.38263 -0.0152,7.96841 -0.93907,7.96841 -6.22317,23.63964 15.82621,38.81336 -1.58001,54.23881 -55.26075,20.49889 -85.956259,-4.75621 -64.641949,-19.41783 3.81224,-2.62235 -0.254865,-17.29436 2.594115,-21.66961 z"
       style="fill:#534b49;stroke-width:2.4233942" />
    <flowRoot
       xml:space="preserve"
       id="flowRoot4778"
       style="font-style:normal;font-weight:normal;font-size:40px;line-height:1.25;font-family:sans-serif;letter-spacing:0px;word-spacing:0px;fill:#000000;fill-opacity:1;stroke:none"
       transform="translate(63.013355,120.74219)"><flowRegion
         id="flowRegion4780"><rect
           id="rect4782"
           width="37.857143"
           height="98.571426"
           x="459.28571"
           y="-48.57143" /></flowRegion><flowPara
         id="flowPara4784" /></flowRoot>    <flowRoot
       xml:space="preserve"
       id="flowRoot4786"
       style="font-style:normal;font-weight:normal;font-size:40px;line-height:1.25;font-family:sans-serif;letter-spacing:0px;word-spacing:0px;fill:#000000;fill-opacity:1;stroke:none"
       transform="translate(63.013355,120.74219)"><flowRegion
         id="flowRegion4788"><rect
           id="rect4790"
           width="416.42856"
           height="60"
           x="145"
           y="12.857142" /></flowRegion><flowPara
         id="flowPara4792" /></flowRoot>    <path
       style="fill:#a9a3a2;stroke-width:2.4233942"
       d="M 118.28312,235.66203 C 73.07959,173.74236 82.671173,141.75279 94.955878,135.72377 c 1.389787,-0.85893 3.59836,-0.0588 4.90794,1.77802 1.843322,2.58548 2.072962,2.38195 1.016812,-0.90122 -0.75034,-2.33252 -0.51357,-4.24094 0.52613,-4.24094 1.03971,0 4.31097,-2.25512 7.26946,-5.01138 2.95849,-2.75625 8.91922,-5.58586 13.24606,-6.288 6.37749,-1.03493 9.78078,0.25802 17.97504,6.82891 5.55944,4.45806 10.241,10.28661 10.40348,12.95235 0.22768,3.7354 0.67312,4.01324 1.94262,1.21169 1.66444,-3.67308 7.2123,-5.03212 21.70849,-5.31784 7.77458,-0.15324 17.50134,5.96774 17.50134,11.01347 -40.43536,12.30223 -21.18996,59.67472 -41.71223,77.17786 -10.48557,8.54946 -15.21531,14.60863 -31.4579,10.73534 z m 20.85231,-57.86377 c -2.82415,-21.71712 -4.06474,-26.50641 -6.0387,-23.31248 -2.6994,4.36772 -9.9958,4.19917 -13.66239,-0.31561 -3.06104,-3.76915 -3.01264,-3.99738 -4.17602,19.69258 -0.29277,5.96163 0.24521,6.2891 8.51068,5.18047 6.1495,-0.82483 9.84716,-0.0274 12.20224,2.63164 1.85847,2.09829 3.56114,3.85656 3.78372,3.90726 0.22259,0.0507 -0.0562,-3.45204 -0.61953,-7.78386 z m -0.99685,-27.4062 c -50.083483,60.29349 -25.04174,30.14674 0,0 z"
       id="path8497"
       inkscape:connector-curvature="0"
       sodipodi:nodetypes="cccssssscssccccssssscccc" />
    <path
       style="fill:#88837e;stroke-width:2.4233942"
       d="m 84.370143,158.48242 c -4.595786,0.76111 -21.356788,-14.81606 -21.356788,-19.84836 0,-1.79167 1.535277,-4.53174 3.411721,-6.08905 13.311357,-7.16293 18.844245,2.07609 25.425179,3.89546 2.799841,0.73218 5.09062,2.22108 5.09062,3.30868 0,1.08759 2.109456,2.64695 4.687685,3.46525 5.19627,1.64923 5.92265,10.95577 0.85509,10.95577 -4.553502,0 -3.828778,4.31403 2.1307,12.68335 3.57877,5.02591 5.45129,11.68376 5.88213,20.91416 0.62819,13.45851 4.37361,19.06612 7.42443,11.11579 0.87749,-2.2867 0.24327,-6.3228 -1.40939,-8.96911 -4.09984,-6.5649 -0.90326,-8.5687 11.54568,-7.23747 10.30122,1.10156 10.4889,1.28097 9.12778,8.72538 -1.3735,7.51215 0.8743,19.37509 3.84712,16.40227 0.84451,-0.84451 2.61792,-10.75538 2.96093,-18.1042 0.34476,-7.38613 2.42642,-16.11287 4.65479,-19.51379 2.21712,-3.38375 4.03112,-7.82643 4.03112,-9.87263 0,-6.02229 -6.24652,-4.25956 -9.39532,2.6513 -1.59671,3.5044 -3.55527,5.71949 -4.35235,4.92241 -0.79708,-0.79707 0.33428,-4.17121 2.51413,-7.49808 2.17985,-3.32687 3.96336,-7.64952 3.96336,-9.6059 0,-1.95638 2.19689,-4.25431 4.88198,-5.10653 3.12936,-5.78664 10.43117,-3.95842 14.10196,-6.8941 6.9926,-6.32822 27.06055,0.32077 27.06055,8.96581 -3.61836,10.1727 -20.01886,9.91543 -26.6123,18.46545 -1.80314,71.99787 -48.40219,33.33724 -80.470807,-7.73186 z m 25.181277,2.84772 c -1.62692,-2.60511 -1.97494,-4.73657 -0.77339,-4.73657 2.17567,0 5.92258,7.282 4.48606,8.71852 -0.41504,0.41505 -2.08574,-1.37683 -3.71267,-3.98195 z m 23.91942,-20.27289 c -2.15021,-2.59085 -2.15646,-3.84043 -0.0258,-5.15726 1.54661,-0.95585 3.65869,-0.36796 4.69352,1.30642 1.13309,1.83338 3.19425,2.25382 5.1817,1.05698 2.75282,-1.65774 2.74855,-1.3073 -0.0258,2.11293 -4.05077,4.99382 -6.12494,5.13759 -9.82363,0.68093 z m -26.42571,-2.1443 c -2.03369,-2.45044 -1.16728,-3.05142 3.94421,-2.73588 9.09822,0.56164 9.45515,0.79248 5.33869,3.45274 -4.82232,3.11642 -6.18916,3.01086 -9.2829,-0.71686 z"
       id="path8499"
       inkscape:connector-curvature="0"
       sodipodi:nodetypes="csccssssssssscssssccsccccccsccccsscccssss" />
    <path
       style="fill:#534b49;stroke-width:2.4233942"
       d="m 96.582666,191.55548 c -1.356478,-4.91276 -1.932897,-10.97211 -1.280933,-13.46522 0.651963,-2.49312 0.07873,-4.53293 -1.273846,-4.53293 -1.352576,0 -1.84112,-2.46275 -1.085654,-5.47277 1.802979,-7.18364 -1.436464,-12.10654 -7.311579,-11.11122 -6.417499,1.0872 -18.871917,-9.10043 -17.214055,-13.42075 -10.246973,-11.85706 10.678506,-17.64497 17.828216,-7.57868 2.175823,3.32072 4.904742,5.45135 6.064268,4.73472 3.248272,-2.00754 11.901977,3.49238 11.901977,7.56438 0,1.99424 -1.41317,4.16817 -3.14037,4.83096 -2.020754,0.77543 -2.79103,4.19736 -2.160528,9.59808 0.598263,5.12454 1.981578,7.77389 3.552198,6.8032 1.57614,-0.9741 2.00854,-0.12054 1.11653,2.20403 -1.78599,4.65421 4.55212,30.12591 9.35428,37.59311 1.92863,2.99895 4.70551,5.45264 6.17085,5.45264 1.75373,0 1.6098,-1.27056 -0.42116,-3.71771 -2.50294,-3.01585 -2.4767,-4.8551 0.13899,-9.74254 2.47718,-4.62867 2.56183,-6.68741 0.36529,-8.88395 -1.57251,-1.57251 -2.85911,-4.86042 -2.85911,-7.30648 0,-3.49488 0.91381,-3.95832 4.26673,-2.16389 2.34671,1.25592 7.25408,1.71243 10.90528,1.01445 4.93754,-0.94386 6.63854,-0.30187 6.63854,2.50555 0,2.07602 -1.13489,4.47598 -2.52197,5.33325 -2.90084,1.79281 -0.54936,11.22331 3.43419,13.77267 1.92238,1.23027 1.82984,2.56916 -0.32663,4.72562 -3.61481,3.61481 -3.90846,6.88642 -0.61811,6.88642 4.52651,0 11.83196,-23.12573 15.88523,-50.28543 1.2593,-8.43816 0.84166,-10.29942 -2.31103,-10.29942 -2.23251,0 -3.84811,-2.03489 -3.84811,-4.84679 0,-4.50849 2.87429,-5.85552 11.67344,-5.47077 1.75536,0.0767 4.3698,-2.44639 5.80986,-5.607 6.95392,-8.84587 17.53864,-3.81255 21.89667,3.43423 3.99338,6.76025 3.93521,7.02984 -2.93743,13.61425 -5.57214,5.33844 -8.74144,6.51546 -15.43859,5.73361 -8.22894,-0.96069 -8.40969,-0.79644 -7.68652,6.9846 0.40732,4.38263 -0.0152,7.96841 -0.93907,7.96841 -6.22317,23.63964 15.82621,38.81336 -1.58001,54.23881 -55.26075,20.49889 -85.956259,-4.75621 -64.641949,-19.41783 3.81224,-2.62235 -0.254865,-17.29436 2.594115,-21.66961 z"
       id="path8501"
       inkscape:connector-curvature="0"
       sodipodi:nodetypes="cssssccsscsccssssssssscsssssscccsssccsc" />
    <path
       sodipodi:nodetypes="cccssssscssccccssssscccc"
       inkscape:connector-curvature="0"
       id="path8507"
       d="M 118.28312,235.66203 C 73.07959,173.74236 82.671173,141.75279 94.955878,135.72377 c 1.389787,-0.85893 3.59836,-0.0588 4.90794,1.77802 1.843322,2.58548 2.072962,2.38195 1.016812,-0.90122 -0.75034,-2.33252 -0.51357,-4.24094 0.52613,-4.24094 1.03971,0 4.31097,-2.25512 7.26946,-5.01138 2.95849,-2.75625 8.91922,-5.58586 13.24606,-6.288 6.37749,-1.03493 9.78078,0.25802 17.97504,6.82891 5.55944,4.45806 10.241,10.28661 10.40348,12.95235 0.22768,3.7354 0.67312,4.01324 1.94262,1.21169 1.66444,-3.67308 7.2123,-5.03212 21.70849,-5.31784 7.77458,-0.15324 17.50134,5.96774 17.50134,11.01347 -40.43536,12.30223 -21.18996,59.67472 -41.71223,77.17786 -10.48557,8.54946 -15.21531,14.60863 -31.4579,10.73534 z m 20.85231,-57.86377 c -2.82415,-21.71712 -4.06474,-26.50641 -6.0387,-23.31248 -2.6994,4.36772 -9.9958,4.19917 -13.66239,-0.31561 -3.06104,-3.76915 -3.01264,-3.99738 -4.17602,19.69258 -0.29277,5.96163 0.24521,6.2891 8.51068,5.18047 6.1495,-0.82483 9.84716,-0.0274 12.20224,2.63164 1.85847,2.09829 3.56114,3.85656 3.78372,3.90726 0.22259,0.0507 -0.0562,-3.45204 -0.61953,-7.78386 z m -0.99685,-27.4062 c -50.083483,60.29349 -25.04174,30.14674 0,0 z"
       style="fill:#a9a3a2;stroke-width:2.4233942" />
    <path
       sodipodi:nodetypes="csccssssssssscssssccsccccccsccccsscccssss"
       inkscape:connector-curvature="0"
       id="path8509"
       d="m 84.370143,158.48242 c -4.595786,0.76111 -21.356788,-14.81606 -21.356788,-19.84836 0,-1.79167 1.535277,-4.53174 3.411721,-6.08905 13.311357,-7.16293 18.844245,2.07609 25.425179,3.89546 2.799841,0.73218 5.09062,2.22108 5.09062,3.30868 0,1.08759 2.109456,2.64695 4.687685,3.46525 5.19627,1.64923 5.92265,10.95577 0.85509,10.95577 -4.553502,0 -3.828778,4.31403 2.1307,12.68335 3.57877,5.02591 5.45129,11.68376 5.88213,20.91416 0.62819,13.45851 4.37361,19.06612 7.42443,11.11579 0.87749,-2.2867 0.24327,-6.3228 -1.40939,-8.96911 -4.09984,-6.5649 -0.90326,-8.5687 11.54568,-7.23747 10.30122,1.10156 10.4889,1.28097 9.12778,8.72538 -1.3735,7.51215 0.8743,19.37509 3.84712,16.40227 0.84451,-0.84451 2.61792,-10.75538 2.96093,-18.1042 0.34476,-7.38613 2.42642,-16.11287 4.65479,-19.51379 2.21712,-3.38375 4.03112,-7.82643 4.03112,-9.87263 0,-6.02229 -6.24652,-4.25956 -9.39532,2.6513 -1.59671,3.5044 -3.55527,5.71949 -4.35235,4.92241 -0.79708,-0.79707 0.33428,-4.17121 2.51413,-7.49808 2.17985,-3.32687 3.96336,-7.64952 3.96336,-9.6059 0,-1.95638 2.19689,-4.25431 4.88198,-5.10653 3.12936,-5.78664 10.43117,-3.95842 14.10196,-6.8941 6.9926,-6.32822 27.06055,0.32077 27.06055,8.96581 -3.61836,10.1727 -20.01886,9.91543 -26.6123,18.46545 -1.80314,71.99787 -48.40219,33.33724 -80.470807,-7.73186 z m 25.181277,2.84772 c -1.62692,-2.60511 -1.97494,-4.73657 -0.77339,-4.73657 2.17567,0 5.92258,7.282 4.48606,8.71852 -0.41504,0.41505 -2.08574,-1.37683 -3.71267,-3.98195 z m 23.91942,-20.27289 c -2.15021,-2.59085 -2.15646,-3.84043 -0.0258,-5.15726 1.54661,-0.95585 3.65869,-0.36796 4.69352,1.30642 1.13309,1.83338 3.19425,2.25382 5.1817,1.05698 2.75282,-1.65774 2.74855,-1.3073 -0.0258,2.11293 -4.05077,4.99382 -6.12494,5.13759 -9.82363,0.68093 z m -26.42571,-2.1443 c -2.03369,-2.45044 -1.16728,-3.05142 3.94421,-2.73588 9.09822,0.56164 9.45515,0.79248 5.33869,3.45274 -4.82232,3.11642 -6.18916,3.01086 -9.2829,-0.71686 z"
       style="fill:#88837e;stroke-width:2.4233942" />
    <path
       sodipodi:nodetypes="cssssccsscsccssssssssscsssssscccsssccsc"
       inkscape:connector-curvature="0"
       id="path8511"
       d="m 96.582666,191.55548 c -1.356478,-4.91276 -1.932897,-10.97211 -1.280933,-13.46522 0.651963,-2.49312 0.07873,-4.53293 -1.273846,-4.53293 -1.352576,0 -1.84112,-2.46275 -1.085654,-5.47277 1.802979,-7.18364 -1.436464,-12.10654 -7.311579,-11.11122 -6.417499,1.0872 -18.871917,-9.10043 -17.214055,-13.42075 -10.246973,-11.85706 10.678506,-17.64497 17.828216,-7.57868 2.175823,3.32072 4.904742,5.45135 6.064268,4.73472 3.248272,-2.00754 11.901977,3.49238 11.901977,7.56438 0,1.99424 -1.41317,4.16817 -3.14037,4.83096 -2.020754,0.77543 -2.79103,4.19736 -2.160528,9.59808 0.598263,5.12454 1.981578,7.77389 3.552198,6.8032 1.57614,-0.9741 2.00854,-0.12054 1.11653,2.20403 -1.78599,4.65421 4.55212,30.12591 9.35428,37.59311 1.92863,2.99895 4.70551,5.45264 6.17085,5.45264 1.75373,0 1.6098,-1.27056 -0.42116,-3.71771 -2.50294,-3.01585 -2.4767,-4.8551 0.13899,-9.74254 2.47718,-4.62867 2.56183,-6.68741 0.36529,-8.88395 -1.57251,-1.57251 -2.85911,-4.86042 -2.85911,-7.30648 0,-3.49488 0.91381,-3.95832 4.26673,-2.16389 2.34671,1.25592 7.25408,1.71243 10.90528,1.01445 4.93754,-0.94386 6.63854,-0.30187 6.63854,2.50555 0,2.07602 -1.13489,4.47598 -2.52197,5.33325 -2.90084,1.79281 -0.54936,11.22331 3.43419,13.77267 1.92238,1.23027 1.82984,2.56916 -0.32663,4.72562 -3.61481,3.61481 -3.90846,6.88642 -0.61811,6.88642 4.52651,0 11.83196,-23.12573 15.88523,-50.28543 1.2593,-8.43816 0.84166,-10.29942 -2.31103,-10.29942 -2.23251,0 -3.84811,-2.03489 -3.84811,-4.84679 0,-4.50849 2.87429,-5.85552 11.67344,-5.47077 1.75536,0.0767 4.3698,-2.44639 5.80986,-5.607 6.95392,-8.84587 17.53864,-3.81255 21.89667,3.43423 3.99338,6.76025 3.93521,7.02984 -2.93743,13.61425 -5.57214,5.33844 -8.74144,6.51546 -15.43859,5.73361 -8.22894,-0.96069 -8.40969,-0.79644 -7.68652,6.9846 0.40732,4.38263 -0.0152,7.96841 -0.93907,7.96841 -6.22317,23.63964 15.82621,38.81336 -1.58001,54.23881 -55.26075,20.49889 -85.956259,-4.75621 -64.641949,-19.41783 3.81224,-2.62235 -0.254865,-17.29436 2.594115,-21.66961 z"
       style="fill:#534b49;stroke-width:2.4233942" />
    <path
       style="fill:#a9a3a2;stroke-width:2.4233942"
       d="M 118.28312,235.66203 C 73.07959,173.74236 82.671173,141.75279 94.955878,135.72377 c 1.389787,-0.85893 3.59836,-0.0588 4.90794,1.77802 1.843322,2.58548 2.072962,2.38195 1.016812,-0.90122 -0.75034,-2.33252 -0.51357,-4.24094 0.52613,-4.24094 1.03971,0 4.31097,-2.25512 7.26946,-5.01138 2.95849,-2.75625 8.91922,-5.58586 13.24606,-6.288 6.37749,-1.03493 9.78078,0.25802 17.97504,6.82891 5.55944,4.45806 10.241,10.28661 10.40348,12.95235 0.22768,3.7354 0.67312,4.01324 1.94262,1.21169 1.66444,-3.67308 7.2123,-5.03212 21.70849,-5.31784 7.77458,-0.15324 17.50134,5.96774 17.50134,11.01347 -40.43536,12.30223 -21.18996,59.67472 -41.71223,77.17786 -10.48557,8.54946 -15.21531,14.60863 -31.4579,10.73534 z m 20.85231,-57.86377 c -2.82415,-21.71712 -4.06474,-26.50641 -6.0387,-23.31248 -2.6994,4.36772 -9.9958,4.19917 -13.66239,-0.31561 -3.06104,-3.76915 -3.01264,-3.99738 -4.17602,19.69258 -0.29277,5.96163 0.24521,6.2891 8.51068,5.18047 6.1495,-0.82483 9.84716,-0.0274 12.20224,2.63164 1.85847,2.09829 3.56114,3.85656 3.78372,3.90726 0.22259,0.0507 -0.0562,-3.45204 -0.61953,-7.78386 z m -0.99685,-27.4062 c -50.083483,60.29349 -25.04174,30.14674 0,0 z"
       id="path8517"
       inkscape:connector-curvature="0"
       sodipodi:nodetypes="cccssssscssccccssssscccc" />
    <path
       style="fill:#88837e;stroke-width:2.4233942"
       d="m 84.370143,158.48242 c -4.595786,0.76111 -21.356788,-14.81606 -21.356788,-19.84836 0,-1.79167 1.535277,-4.53174 3.411721,-6.08905 13.311357,-7.16293 18.844245,2.07609 25.425179,3.89546 2.799841,0.73218 5.09062,2.22108 5.09062,3.30868 0,1.08759 2.109456,2.64695 4.687685,3.46525 5.19627,1.64923 5.92265,10.95577 0.85509,10.95577 -4.553502,0 -3.828778,4.31403 2.1307,12.68335 3.57877,5.02591 5.45129,11.68376 5.88213,20.91416 0.62819,13.45851 4.37361,19.06612 7.42443,11.11579 0.87749,-2.2867 0.24327,-6.3228 -1.40939,-8.96911 -4.09984,-6.5649 -0.90326,-8.5687 11.54568,-7.23747 10.30122,1.10156 10.4889,1.28097 9.12778,8.72538 -1.3735,7.51215 0.8743,19.37509 3.84712,16.40227 0.84451,-0.84451 2.61792,-10.75538 2.96093,-18.1042 0.34476,-7.38613 2.42642,-16.11287 4.65479,-19.51379 2.21712,-3.38375 4.03112,-7.82643 4.03112,-9.87263 0,-6.02229 -6.24652,-4.25956 -9.39532,2.6513 -1.59671,3.5044 -3.55527,5.71949 -4.35235,4.92241 -0.79708,-0.79707 0.33428,-4.17121 2.51413,-7.49808 2.17985,-3.32687 3.96336,-7.64952 3.96336,-9.6059 0,-1.95638 2.19689,-4.25431 4.88198,-5.10653 3.12936,-5.78664 10.43117,-3.95842 14.10196,-6.8941 6.9926,-6.32822 27.06055,0.32077 27.06055,8.96581 -3.61836,10.1727 -20.01886,9.91543 -26.6123,18.46545 -1.80314,71.99787 -48.40219,33.33724 -80.470807,-7.73186 z m 25.181277,2.84772 c -1.62692,-2.60511 -1.97494,-4.73657 -0.77339,-4.73657 2.17567,0 5.92258,7.282 4.48606,8.71852 -0.41504,0.41505 -2.08574,-1.37683 -3.71267,-3.98195 z m 23.91942,-20.27289 c -2.15021,-2.59085 -2.15646,-3.84043 -0.0258,-5.15726 1.54661,-0.95585 3.65869,-0.36796 4.69352,1.30642 1.13309,1.83338 3.19425,2.25382 5.1817,1.05698 2.75282,-1.65774 2.74855,-1.3073 -0.0258,2.11293 -4.05077,4.99382 -6.12494,5.13759 -9.82363,0.68093 z m -26.42571,-2.1443 c -2.03369,-2.45044 -1.16728,-3.05142 3.94421,-2.73588 9.09822,0.56164 9.45515,0.79248 5.33869,3.45274 -4.82232,3.11642 -6.18916,3.01086 -9.2829,-0.71686 z"
       id="path8519"
       inkscape:connector-curvature="0"
       sodipodi:nodetypes="csccssssssssscssssccsccccccsccccsscccssss" />
    <path
       style="fill:#534b49;stroke-width:2.4233942"
       d="m 96.582666,191.55548 c -1.356478,-4.91276 -1.932897,-10.97211 -1.280933,-13.46522 0.651963,-2.49312 0.07873,-4.53293 -1.273846,-4.53293 -1.352576,0 -1.84112,-2.46275 -1.085654,-5.47277 1.802979,-7.18364 -1.436464,-12.10654 -7.311579,-11.11122 -6.417499,1.0872 -18.871917,-9.10043 -17.214055,-13.42075 -10.246973,-11.85706 10.678506,-17.64497 17.828216,-7.57868 2.175823,3.32072 4.904742,5.45135 6.064268,4.73472 3.248272,-2.00754 11.901977,3.49238 11.901977,7.56438 0,1.99424 -1.41317,4.16817 -3.14037,4.83096 -2.020754,0.77543 -2.79103,4.19736 -2.160528,9.59808 0.598263,5.12454 1.981578,7.77389 3.552198,6.8032 1.57614,-0.9741 2.00854,-0.12054 1.11653,2.20403 -1.78599,4.65421 4.55212,30.12591 9.35428,37.59311 1.92863,2.99895 4.70551,5.45264 6.17085,5.45264 1.75373,0 1.6098,-1.27056 -0.42116,-3.71771 -2.50294,-3.01585 -2.4767,-4.8551 0.13899,-9.74254 2.47718,-4.62867 2.56183,-6.68741 0.36529,-8.88395 -1.57251,-1.57251 -2.85911,-4.86042 -2.85911,-7.30648 0,-3.49488 0.91381,-3.95832 4.26673,-2.16389 2.34671,1.25592 7.25408,1.71243 10.90528,1.01445 4.93754,-0.94386 6.63854,-0.30187 6.63854,2.50555 0,2.07602 -1.13489,4.47598 -2.52197,5.33325 -2.90084,1.79281 -0.54936,11.22331 3.43419,13.77267 1.92238,1.23027 1.82984,2.56916 -0.32663,4.72562 -3.61481,3.61481 -3.90846,6.88642 -0.61811,6.88642 4.52651,0 11.83196,-23.12573 15.88523,-50.28543 1.2593,-8.43816 0.84166,-10.29942 -2.31103,-10.29942 -2.23251,0 -3.84811,-2.03489 -3.84811,-4.84679 0,-4.50849 2.87429,-5.85552 11.67344,-5.47077 1.75536,0.0767 4.3698,-2.44639 5.80986,-5.607 6.95392,-8.84587 17.53864,-3.81255 21.89667,3.43423 3.99338,6.76025 3.93521,7.02984 -2.93743,13.61425 -5.57214,5.33844 -8.74144,6.51546 -15.43859,5.73361 -8.22894,-0.96069 -8.40969,-0.79644 -7.68652,6.9846 0.40732,4.38263 -0.0152,7.96841 -0.93907,7.96841 -6.22317,23.63964 15.82621,38.81336 -1.58001,54.23881 -55.26075,20.49889 -85.956259,-4.75621 -64.641949,-19.41783 3.81224,-2.62235 -0.254865,-17.29436 2.594115,-21.66961 z"
       id="path8521"
       inkscape:connector-curvature="0"
       sodipodi:nodetypes="cssssccsscsccssssssssscsssssscccsssccsc" />
    <path
       sodipodi:nodetypes="cccssssscssccccssssscccc"
       inkscape:connector-curvature="0"
       id="path8527"
       d="M 118.28312,235.66203 C 73.07959,173.74236 82.671173,141.75279 94.955878,135.72377 c 1.389787,-0.85893 3.59836,-0.0588 4.90794,1.77802 1.843322,2.58548 2.072962,2.38195 1.016812,-0.90122 -0.75034,-2.33252 -0.51357,-4.24094 0.52613,-4.24094 1.03971,0 4.31097,-2.25512 7.26946,-5.01138 2.95849,-2.75625 8.91922,-5.58586 13.24606,-6.288 6.37749,-1.03493 9.78078,0.25802 17.97504,6.82891 5.55944,4.45806 10.241,10.28661 10.40348,12.95235 0.22768,3.7354 0.67312,4.01324 1.94262,1.21169 1.66444,-3.67308 7.2123,-5.03212 21.70849,-5.31784 7.77458,-0.15324 17.50134,5.96774 17.50134,11.01347 -40.43536,12.30223 -21.18996,59.67472 -41.71223,77.17786 -10.48557,8.54946 -15.21531,14.60863 -31.4579,10.73534 z m 20.85231,-57.86377 c -2.82415,-21.71712 -4.06474,-26.50641 -6.0387,-23.31248 -2.6994,4.36772 -9.9958,4.19917 -13.66239,-0.31561 -3.06104,-3.76915 -3.01264,-3.99738 -4.17602,19.69258 -0.29277,5.96163 0.24521,6.2891 8.51068,5.18047 6.1495,-0.82483 9.84716,-0.0274 12.20224,2.63164 1.85847,2.09829 3.56114,3.85656 3.78372,3.90726 0.22259,0.0507 -0.0562,-3.45204 -0.61953,-7.78386 z m -0.99685,-27.4062 c -50.083483,60.29349 -25.04174,30.14674 0,0 z"
       style="fill:#a9a3a2;stroke-width:2.4233942" />
    <path
       sodipodi:nodetypes="csccssssssssscssssccsccccccsccccsscccssss"
       inkscape:connector-curvature="0"
       id="path8529"
       d="m 84.370143,158.48242 c -4.595786,0.76111 -21.356788,-14.81606 -21.356788,-19.84836 0,-1.79167 1.535277,-4.53174 3.411721,-6.08905 13.311357,-7.16293 18.844245,2.07609 25.425179,3.89546 2.799841,0.73218 5.09062,2.22108 5.09062,3.30868 0,1.08759 2.109456,2.64695 4.687685,3.46525 5.19627,1.64923 5.92265,10.95577 0.85509,10.95577 -4.553502,0 -3.828778,4.31403 2.1307,12.68335 3.57877,5.02591 5.45129,11.68376 5.88213,20.91416 0.62819,13.45851 4.37361,19.06612 7.42443,11.11579 0.87749,-2.2867 0.24327,-6.3228 -1.40939,-8.96911 -4.09984,-6.5649 -0.90326,-8.5687 11.54568,-7.23747 10.30122,1.10156 10.4889,1.28097 9.12778,8.72538 -1.3735,7.51215 0.8743,19.37509 3.84712,16.40227 0.84451,-0.84451 2.61792,-10.75538 2.96093,-18.1042 0.34476,-7.38613 2.42642,-16.11287 4.65479,-19.51379 2.21712,-3.38375 4.03112,-7.82643 4.03112,-9.87263 0,-6.02229 -6.24652,-4.25956 -9.39532,2.6513 -1.59671,3.5044 -3.55527,5.71949 -4.35235,4.92241 -0.79708,-0.79707 0.33428,-4.17121 2.51413,-7.49808 2.17985,-3.32687 3.96336,-7.64952 3.96336,-9.6059 0,-1.95638 2.19689,-4.25431 4.88198,-5.10653 3.12936,-5.78664 10.43117,-3.95842 14.10196,-6.8941 6.9926,-6.32822 27.06055,0.32077 27.06055,8.96581 -3.61836,10.1727 -20.01886,9.91543 -26.6123,18.46545 -1.80314,71.99787 -48.40219,33.33724 -80.470807,-7.73186 z m 25.181277,2.84772 c -1.62692,-2.60511 -1.97494,-4.73657 -0.77339,-4.73657 2.17567,0 5.92258,7.282 4.48606,8.71852 -0.41504,0.41505 -2.08574,-1.37683 -3.71267,-3.98195 z m 23.91942,-20.27289 c -2.15021,-2.59085 -2.15646,-3.84043 -0.0258,-5.15726 1.54661,-0.95585 3.65869,-0.36796 4.69352,1.30642 1.13309,1.83338 3.19425,2.25382 5.1817,1.05698 2.75282,-1.65774 2.74855,-1.3073 -0.0258,2.11293 -4.05077,4.99382 -6.12494,5.13759 -9.82363,0.68093 z m -26.42571,-2.1443 c -2.03369,-2.45044 -1.16728,-3.05142 3.94421,-2.73588 9.09822,0.56164 9.45515,0.79248 5.33869,3.45274 -4.82232,3.11642 -6.18916,3.01086 -9.2829,-0.71686 z"
       style="fill:#88837e;stroke-width:2.4233942" />
    <path
       sodipodi:nodetypes="cssssccsscsccssssssssscsssssscccsssccsc"
       inkscape:connector-curvature="0"
       id="path8531"
       d="m 96.582666,191.55548 c -1.356478,-4.91276 -1.932897,-10.97211 -1.280933,-13.46522 0.651963,-2.49312 0.07873,-4.53293 -1.273846,-4.53293 -1.352576,0 -1.84112,-2.46275 -1.085654,-5.47277 1.802979,-7.18364 -1.436464,-12.10654 -7.311579,-11.11122 -6.417499,1.0872 -18.871917,-9.10043 -17.214055,-13.42075 -10.246973,-11.85706 10.678506,-17.64497 17.828216,-7.57868 2.175823,3.32072 4.904742,5.45135 6.064268,4.73472 3.248272,-2.00754 11.901977,3.49238 11.901977,7.56438 0,1.99424 -1.41317,4.16817 -3.14037,4.83096 -2.020754,0.77543 -2.79103,4.19736 -2.160528,9.59808 0.598263,5.12454 1.981578,7.77389 3.552198,6.8032 1.57614,-0.9741 2.00854,-0.12054 1.11653,2.20403 -1.78599,4.65421 4.55212,30.12591 9.35428,37.59311 1.92863,2.99895 4.70551,5.45264 6.17085,5.45264 1.75373,0 1.6098,-1.27056 -0.42116,-3.71771 -2.50294,-3.01585 -2.4767,-4.8551 0.13899,-9.74254 2.47718,-4.62867 2.56183,-6.68741 0.36529,-8.88395 -1.57251,-1.57251 -2.85911,-4.86042 -2.85911,-7.30648 0,-3.49488 0.91381,-3.95832 4.26673,-2.16389 2.34671,1.25592 7.25408,1.71243 10.90528,1.01445 4.93754,-0.94386 6.63854,-0.30187 6.63854,2.50555 0,2.07602 -1.13489,4.47598 -2.52197,5.33325 -2.90084,1.79281 -0.54936,11.22331 3.43419,13.77267 1.92238,1.23027 1.82984,2.56916 -0.32663,4.72562 -3.61481,3.61481 -3.90846,6.88642 -0.61811,6.88642 4.52651,0 11.83196,-23.12573 15.88523,-50.28543 1.2593,-8.43816 0.84166,-10.29942 -2.31103,-10.29942 -2.23251,0 -3.84811,-2.03489 -3.84811,-4.84679 0,-4.50849 2.87429,-5.85552 11.67344,-5.47077 1.75536,0.0767 4.3698,-2.44639 5.80986,-5.607 6.95392,-8.84587 17.53864,-3.81255 21.89667,3.43423 3.99338,6.76025 3.93521,7.02984 -2.93743,13.61425 -5.57214,5.33844 -8.74144,6.51546 -15.43859,5.73361 -8.22894,-0.96069 -8.40969,-0.79644 -7.68652,6.9846 0.40732,4.38263 -0.0152,7.96841 -0.93907,7.96841 -6.22317,23.63964 15.82621,38.81336 -1.58001,54.23881 -55.26075,20.49889 -85.956259,-4.75621 -64.641949,-19.41783 3.81224,-2.62235 -0.254865,-17.29436 2.594115,-21.66961 z"
       style="fill:#534b49;stroke-width:2.4233942" />
  </g>
</svg>
