<?xml version="1.0" encoding="UTF-8" standalone="no"?>
<!-- Created with Inkscape (http://www.inkscape.org/) -->

<svg
   xmlns:dc="http://purl.org/dc/elements/1.1/"
   xmlns:cc="http://creativecommons.org/ns#"
   xmlns:rdf="http://www.w3.org/1999/02/22-rdf-syntax-ns#"
   xmlns:svg="http://www.w3.org/2000/svg"
   xmlns="http://www.w3.org/2000/svg"
   xmlns:sodipodi="http://sodipodi.sourceforge.net/DTD/sodipodi-0.dtd"
   xmlns:inkscape="http://www.inkscape.org/namespaces/inkscape"
   width="210mm"
   height="297mm"
   viewBox="0 0 210 297"
   version="1.1"
   id="svg4404"
   inkscape:version="0.92.3 (2405546, 2018-03-11)"
   sodipodi:docname="sheep.svg">
  <defs
     id="defs4398" />
  <sodipodi:namedview
     id="base"
     pagecolor="#ffffff"
     bordercolor="#666666"
     borderopacity="1.0"
     inkscape:pageopacity="0.0"
     inkscape:pageshadow="2"
     inkscape:zoom="0.35"
     inkscape:cx="401.27035"
     inkscape:cy="1017.0523"
     inkscape:document-units="mm"
     inkscape:current-layer="layer1"
     showgrid="false"
     inkscape:window-width="1920"
     inkscape:window-height="1047"
     inkscape:window-x="1920"
     inkscape:window-y="0"
     inkscape:window-maximized="1" />
  <metadata
     id="metadata4401">
    <rdf:RDF>
      <cc:Work
         rdf:about="">
        <dc:format>image/svg+xml</dc:format>
        <dc:type
           rdf:resource="http://purl.org/dc/dcmitype/StillImage" />
        <dc:title></dc:title>
      </cc:Work>
    </rdf:RDF>
  </metadata>
  <g
     inkscape:label="Layer 1"
     inkscape:groupmode="layer"
     id="layer1">
    <g
       id="g4375"
       transform="matrix(0.33082648,0,0,0.33735413,99.714709,146.80929)">
      <path
         style="fill:#f7f6f6;stroke-width:7.25405598"
         d="M -162.21529,72.104175 V -157.76884 H 72.193445 306.60218 V 72.104175 301.97719 H 72.193445 -162.21529 Z"
         id="path4383"
         inkscape:connector-curvature="0" />
      <path
         style="fill:#a9a3a2;stroke-width:7.25405598"
         d="m 60.166775,287.94104 c -32.114612,-7.51003 -73.794448,-33.62819 -112.1694,-70.28959 -30.663702,-29.29449 -32.137503,-32.45306 -24.455394,-52.41149 4.603619,-11.96038 5.338212,-22.95751 1.681568,-25.17372 -8.866364,-5.37368 -0.116399,-67.87916 12.221265,-87.302833 9.101637,-14.329049 8.173349,-17.027018 -10.295876,-29.923792 -50.181048,-35.040657 -46.206588,-75.566336 7.041243,-71.796109 20.578376,1.45705 30.928731,-1.724314 39.408269,-12.112836 11.087247,-13.583297 11.2104,-13.503545 3.431802,2.222513 -8.791419,17.773681 -3.63198,33.391089 8.585074,25.986642 4.200956,-2.546095 10.8768802,-0.174416 14.83539178,5.270471 5.57187362,7.664002 6.26599452,7.060693 3.07354532,-2.671448 -2.2680583,-6.914149 -1.5523938,-12.571181 1.5903608,-12.571181 3.1427618,0 13.0308911,-6.684721 21.9736211,-14.854932 8.942737,-8.170212 26.960418,-16.557847 40.03929,-18.639189 19.27746,-3.067771 29.564685,0.764838 54.333765,20.242582 16.80469,13.21476 30.9558,30.492016 31.44692,38.393901 0.68821,11.072645 2.03467,11.8962513 5.87204,3.591765 5.03114,-10.887921 21.80083,-14.916438 65.61894,-15.763384 23.50049,-0.454236 52.90189,17.689842 52.90189,32.6466163 0,10.9500087 -37.75597,47.7685537 -48.98477,47.7685537 -13.17119,0 -11.84434,7.57502 5.03313,28.734127 7.87863,9.877356 14.39807,20.970903 14.48766,24.652333 0.0896,3.68143 -10.55033,-7.013394 -23.64425,-23.766281 -16.86454,-21.577152 -24.51758,-27.094457 -26.24335,-18.919597 -1.33991,6.34711 0.70066,15.425643 4.53465,20.174517 6.82729,8.456483 18.26568,53.802881 27.09309,107.407891 2.43984,14.81603 7.96752,26.93824 12.28376,26.93824 4.76844,0 5.84328,-6.34198 2.73931,-16.16295 -12.87996,-40.75219 -13.05817,-48.48884 -1.11692,-48.48884 6.51303,0 11.84187,4.84889 11.84187,10.7753 0,5.92642 -3.41235,10.7753 -7.58301,10.7753 -5.22715,0 -5.22715,4.31676 0,13.89481 12.03722,22.05654 9.47752,26.79305 -23.5494,43.57622 -17.12283,8.70124 -44.87267,26.80687 -61.66632,40.23473 -31.69507,25.34271 -53.26277,29.04304 -102.359765,17.56166 z M -56.713427,170.87774 c 1.986541,-12.84057 5.520655,-37.89313 7.853579,-55.67237 2.332924,-17.779246 6.232269,-43.63996 8.665219,-57.468258 l 4.423542,-25.142361 -15.607827,17.262098 c -13.810337,15.274085 -21.557678,53.669801 -15.359977,76.123811 3.360396,12.17459 2.19326,27.87162 -3.605338,48.48884 -3.537902,12.57918 -2.727375,19.75471 2.231439,19.75471 4.283102,0 9.412815,-10.50591 11.399363,-23.34647 z M 119.15829,91.858887 C 110.62164,27.484041 106.87168,13.2874 100.90493,22.755 92.74537,35.701973 70.690306,35.202351 59.607183,21.819453 50.354477,10.646777 50.50077,9.9702461 46.984177,80.193054 c -0.884966,17.67174 0.741193,18.642429 25.725517,15.356172 18.588305,-2.444973 29.765326,-0.0811 36.884116,7.800824 5.61764,6.21986 10.76437,11.43179 11.43716,11.58208 0.67283,0.15027 -0.16994,-10.23268 -1.87268,-23.073243 z m 11.63734,-76.799015 c 0,-3.717772 -3.29637,-8.7574294 -7.32527,-11.1992483 -4.0289,-2.4418189 -7.32528,0.5999973 -7.32528,6.7595813 0,6.159584 3.29638,11.199248 7.32528,11.199248 4.0289,0 7.32527,-3.041809 7.32527,-6.759581 z m 25.94782,-81.661125 c -22.48335,-13.415159 -33.27309,-24.695059 -33.27309,-34.784607 0,-5.11226 5.13147,-2.11057 11.40328,6.670425 6.2718,8.780994 15.80824,15.965444 21.19209,15.965444 5.38385,0 11.68622,4.848884 14.00527,10.775297 4.89987,12.521765 5.28938,12.481624 -13.32755,1.373441 z M 7.733387,-82.341757 c 1.7317238,-3.950942 7.233377,-17.285373 12.225895,-29.632073 7.100688,-17.56026 13.37734,-22.3742 28.824422,-22.10717 l 19.747105,0.34137 -20.144501,7.33095 c -11.079476,4.03202 -20.24934,10.74765 -20.377466,14.92363 -0.128134,4.17599 -5.450963,14.057876 -11.8285,21.959761 -6.3775434,7.901885 -10.1786715,11.134474 -8.446955,7.183532 z M 105.47,-121.35481 c -2.31794,-3.67794 -1.20971,-8.50826 2.46274,-10.73404 3.67245,-2.22578 8.56733,0.78344 10.8775,6.68716 4.55412,11.6382 -6.4518,14.97694 -13.34024,4.04688 z"
         id="path4381"
         inkscape:connector-curvature="0" />
      <path
         style="fill:#88837e;stroke-width:7.25405598"
         d="M 60.119989,287.93166 C 47.436235,284.96641 21.065252,272.81601 1.5178049,260.93078 -28.86942,242.45475 -33.790289,236.31202 -32.41806,218.56862 c 1.217899,-15.74792 0.237338,-17.5136 -4.066076,-7.32158 -5.285339,12.51762 -7.138164,12.09025 -27.243408,-6.28398 -11.864811,-10.84327 -16.152967,-15.96752 -9.529236,-11.38722 21.150503,14.62554 35.434646,-8.48933 36.53948,-59.12887 0.532599,-24.41118 1.356692,-57.314323 1.831319,-73.118093 0.697468,-23.223553 -1.507315,-28.349175 -11.49654,-26.726868 -13.891831,2.256117 -64.555859,-43.9184249 -64.555859,-58.835381 0,-5.310943 4.64073,-13.433189 10.31272,-18.049449 11.712977,-9.532805 71.507855,-8.332724 65.428743,1.313157 -2.179547,3.458331 2.961608,8.063622 11.424774,10.233961 8.463173,2.170346 15.3875853,6.583814 15.3875853,9.807711 0,3.223891 6.3763205,7.846227 14.1696052,10.271862 15.7069605,4.8887308 17.9025935,32.475583 2.5847299,32.475583 -13.7640268,0 -11.5733819,12.787829 6.4405416,37.596543 10.817648,14.898027 16.477791,34.633516 17.780093,61.994684 1.898835,39.8943 13.220242,56.51662 22.442079,32.9499 2.652408,-6.77833 0.735319,-18.74232 -4.26021,-26.58664 -12.392743,-19.45997 -2.730334,-25.39971 34.89949,-21.45363 31.137839,3.26531 31.705149,3.79711 27.590849,25.86417 -4.15173,22.26784 5.06643,47.92547 14.05246,39.11333 2.55272,-2.50333 5.48962,-22.37456 6.52646,-44.15828 1.04209,-21.89427 7.3344,-47.762453 14.07016,-57.84362 6.70176,-10.030265 12.18502,-23.199467 12.18502,-29.26489 0,-17.851543 -18.88156,-12.626385 -28.39954,7.859093 -4.82644,10.387919 -10.74664,16.953983 -13.15599,14.591247 -2.40936,-2.362728 1.01044,-12.364503 7.59954,-22.226149 6.58909,-9.861653 11.98017,-22.675055 11.98017,-28.474234 0,-5.7991785 6.64061,-12.61081881 14.75692,-15.1369939 8.1163,-2.526168 12.88965,-7.5558611 10.60745,-11.1770941 -2.28221,-3.621233 1.08908,-4.61274 7.49173,-2.203347 6.40266,2.409385 17.43993,-0.765528 24.52727,-7.055371 21.13677,-18.758385 81.79682,0.950856 81.79682,26.5768553 0,10.9500087 -37.75597,47.7685537 -48.98477,47.7685537 -10.71254,0 -12.46988,7.871534 -4.12346,18.469973 3.02167,3.836983 -0.50376,0.615414 -7.83426,-7.159043 -10.75652,-11.407951 -14.51894,-12.246003 -19.4994,-4.343371 -3.39416,5.385601 -3.56003,16.527015 -0.36861,24.758695 3.19144,8.231688 5.93812,17.418384 6.10375,20.414886 2.59401,46.93129 12.53127,103.46946 18.90889,107.58244 13.82541,8.91612 25.26071,6.10483 28.77252,-7.07353 2.89334,-10.85745 3.46586,-10.95632 4.19977,-0.7253 0.5102,7.11285 -11.58924,18.16694 -30.28268,27.66632 -17.12282,8.70124 -44.87267,26.80687 -61.66632,40.23473 -31.70226,25.34847 -53.2563,29.04279 -102.406546,17.55228 z M 29.733753,43.043355 c -4.917749,-7.722203 -5.969731,-14.04037 -2.337744,-14.04037 6.576454,0 17.902359,21.585643 13.560157,25.843833 -1.254577,1.230294 -6.304657,-4.081267 -11.222413,-11.803463 z m 72.302017,-60.093791 c -6.49953,-7.679928 -6.518421,-11.383973 -0.078,-15.287389 4.67499,-2.833386 11.05925,-1.09074 14.18726,3.872556 3.42502,5.434572 9.65535,6.680864 15.66288,3.133148 8.32106,-4.91396 8.30813,-3.875157 -0.0779,6.263213 -12.24441,14.8029028 -18.51406,15.2290802 -29.69423,2.018472 z m -79.877858,-6.35624 c -6.147296,-7.263715 -3.528372,-9.045166 11.922292,-8.109834 27.501484,1.664855 28.580372,2.349115 16.137422,10.234773 -14.576568,9.237827 -18.708176,8.924942 -28.059714,-2.124939 z"
         id="path4379"
         inkscape:connector-curvature="0" />
      <path
         style="fill:#534b49;stroke-width:7.25405598"
         d="m 60.989843,288.10612 c -25.587354,-6.01522 -88.924726,-41.00098 -96.415668,-53.25727 -2.832375,-4.63419 0.262684,-4.05768 7.00899,1.30556 11.019283,8.76017 11.736582,6.16325 8.161174,-29.54686 -3.08591,-30.82109 -1.562129,-40.03844 7.161715,-43.32131 9.0713174,-3.41364 9.7292221,-8.97346 3.6266178,-30.64762 -4.1002698,-14.56261 -5.8426308,-32.52399 -3.8719198,-39.914196 1.970711,-7.390195 0.237991,-13.436717 -3.850493,-13.436717 -4.088476,0 -5.565215,-7.300178 -3.281642,-16.222627 5.449923,-21.29405 -4.342048,-35.88672 -22.100949,-32.936357 -19.398385,3.222741 -55.902239,-21.093708 -50.890965,-33.9001851 2.18542,-5.5849158 1.125386,-9.3850259 -2.355632,-8.4446869 -9.290461,2.5096673 -10.592731,-3.469157 -4.712781,-21.636769 7.537241,-23.288227 43.799442,-22.236895 59.815822,1.734205 6.576931,9.843436 14.825723,16.159125 18.330661,14.034868 9.818656,-5.950844 35.976488,10.3522599 35.976488,22.4226692 0,5.9113998 -4.2716155,12.3554588 -9.492484,14.3201338 -6.1082082,2.298579 -8.4365462,12.442006 -6.530708,28.451052 1.80839018,15.190404 5.9897952,23.043728 10.7373339,20.166358 4.7642481,-2.887486 6.0713031,-0.357309 3.3749731,6.533271 -5.3985725,13.796224 13.759859,89.300561 28.275495,111.435161 5.829723,8.88962 14.223497,16.16295 18.652841,16.16295 5.301043,0 4.865973,-3.76624 -1.273052,-11.02018 -7.565718,-8.93973 -7.486407,-14.3917 0.420104,-28.87928 7.487865,-13.72049 7.743744,-19.8231 1.104183,-26.33419 -4.753282,-4.6613 -8.642321,-14.40748 -8.642321,-21.65819 0,-10.35968 2.762192,-11.73342 12.897191,-6.41429 7.093457,3.72285 21.927135,5.07604 32.963728,3.00708 14.924865,-2.79786 20.066535,-0.89482 20.066535,7.42705 0,6.15383 -3.43046,13.26789 -7.62324,15.80904 -8.768462,5.31435 -1.66057,33.26865 10.38064,40.82558 5.81084,3.64682 5.53111,7.6156 -0.98731,14.00789 -10.92659,10.71516 -11.81423,20.41302 -1.86839,20.41302 13.68244,0 35.76486,-68.55032 48.01681,-149.058286 3.80653,-25.012777 2.54412,-30.530009 -6.98563,-30.530009 -6.74827,0 -11.63179,-6.031904 -11.63179,-14.367064 0,-13.3642565 8.68819,-17.3571939 35.28568,-16.2166933 5.30598,0.2275024 13.20872,-7.2517106 17.56166,-16.6205087 5.52701,-11.895749 12.56053,-16.174074 23.3165,-14.182892 8.47115,1.568208 18.81182,3.091498 22.97928,3.385096 4.16747,0.293591 13.11886,9.733549 19.89198,20.9776723 12.07093,20.0390507 11.89511,20.8381607 -8.87906,40.3559607 -16.84307,15.824451 -26.42303,19.313435 -46.66673,16.995826 -24.87389,-2.847702 -25.42024,-2.360846 -23.23429,20.704059 1.23122,12.991181 -0.0461,23.620329 -2.83857,23.620329 -7.36602,0 -5.59432,80.81077 2.02661,92.43731 9.59215,14.63384 18.48958,58.41686 11.87127,58.41686 -3.15975,0 -18.47037,11.23906 -34.02362,24.97568 -29.48827,26.04406 -52.36405,30.23073 -101.747037,18.6215 z"
         id="path4377"
         inkscape:connector-curvature="0" />
    </g>
  </g>
</svg>
